<svg id="_1" data-name="???? 1" xmlns="http://www.w3.org/2000/svg" viewBox="0 0 126.37 242.15"><defs><style>.cls-1,.cls-2{fill:#fff;}.cls-1{fill-rule:evenodd;}</style></defs><title>альфа</title><path class="cls-1" d="M41.29,161.25v14.63a2.06,2.06,0,0,1-2.05,2.05H26.91a2.06,2.06,0,0,1-2.05-2.05V158.78a.41.41,0,0,1,.41-.41H40.88a.41.41,0,0,1,.41.41Z" transform="translate(0 0)"/><path class="cls-1" d="M63.21,90.64l14.44,10.44A15,15,0,0,1,73,108c-1.58-1.05-2-2.08-3.14-2.81l-6.74,5.92c-2.54-1.58-4.44-4.22-6.74-5.93-1.15.85-1.8,2-3.14,2.79a15.92,15.92,0,0,1-4.61-6.92L63.21,90.64ZM56.4,73.79l-2.77.28C50.79,63,56.4,71,63.17,71c7.06,0,12.06-7.82,9.58,2.92l-2.84,0c-1.86,3.15-3.44,3.84-6.21,5.53l0,9.89c2.12,1.16,4.92,3.27,7.21,4.84a88.84,88.84,0,0,0,7.5,5c1.89-1.87,5.35-12.3,5.91-16.15,1.06-7.36-5.79-12.44-6.94-15.31,4.62.74,6.47,3.17,9.72,4.19,2.45-4.29,12.4-18.28,13.09-20.69-1.64-2.54-7.13-6.33-10.55-7.9-1.89,1.16-2.9,3.8-4.51,4.72-1.81,1-6.48.43-8.87.64L72.6,57.23c-.59-1.2.68-5.49,1-7.32.58-3.38,2-4,3.83-6s3.9-1.82,7.4-2.41c2.64-.44,5.47-1,7.61-2.41-.61-2.28-4.43-5.25-6.08-6.56-3-2.41-3.84-4.36-8.6-2.66-4,1.41-8.51,4.95-11.24,7.63-1.32,1.3-2,2.58-3.34,3.54C61.34,39.91,57,33.06,48.93,30c-4.84-1.84-5.72,0-8.74,2.3-2,1.56-5.81,4.17-6.25,6.81,3.57,2,12.41,2.32,14.44,4,3.56,3,4,4.59,4.79,8.61.35,1.72.88,2.92,0,4.19l-3-7.33c-2.17-.1-7.12.27-8.72-.41-.61-.26-3.72-4.14-4.27-5-3.72.93-9,5.49-11.12,8.06.92,2.45,5,8,6.48,10.39,2.06,3.16,4.44,7.21,6.8,10.15,3-.81,4.92-3.41,9.55-4.05-2,3.91-7.73,8.05-6.95,15C42.6,88.22,45.7,94.31,47.35,99c2-.39,7-4.12,8.8-5.37,7.47-5.08,6.24-2.52,6.24-11.85,0-5.9-2.68-1.29-6-8ZM20.87,14c1-2.07,3-2.48,4.42-4.56C24.17,8.32,10.16.77,8.84.53,6,3.44,3.58,9.62,3.57,14.87c0,6.62,2.45,10.25,5,14.81-.51,2.11-2.12,4.79-3,7C3.44,42,.11,56.28,0,60.94l6.83-4.86C5.35,67,2.69,73.33,4.53,85.65c.58,3.92,5.6,24,7,26.48,1.17-1.51,4.15-14.09,4.87-17,.09.08.21.1.24.26l1.17,3A60.48,60.48,0,0,0,28.88,121.9c2.69,3.46,16.09,16.75,20.42,18.72l-3.41-15.77c2.2.88,6.81,6.17,8.78,8.07s6.42,7.07,8.5,8.27c4.25-3,14.15-14.79,17.18-16.33L77,140.64c3.18-1.12,17-14.27,20.48-18.69,5.48-7,8.7-14.23,11-23.17.4-1.58.36-2.53,1.41-3.6.8,3.19,3.55,15.2,4.89,17,1.21-2,6.34-22.09,6.91-25.75,2-12.69-.69-18.77-2.24-30,2.78,1.25,4.33,3.42,6.89,4.52-.38-4.38-2.16-11.83-3.18-16.37-1.33-5.9-3.31-9.49-5.4-14.5,0-.25,11.26-16.54-.28-29.36C115.79,1,102.55,8.26,101,9.48c.65,1.41,3.83,3.57,4.76,4.89C101,13.14,77.7.14,73.91,0c-4-.12-7.46,3.71-10.74,5.16C59.92,3.93,56.7.09,52.82,0,48.51-.1,25.72,12.85,20.87,14Z" transform="translate(0 0)"/><rect class="cls-2" x="24.85" y="154.61" width="16.44" height="3.3" rx="0.41" ry="0.41"/><path class="cls-1" d="M63.18,156.66v0h0v0Zm-2-1.85,0,0a15.35,15.35,0,0,0-1.58,5c-.3,2.56-2.65,41.45-3,49.92a3.65,3.65,0,0,0,1.17,3.05l5.45,4.06,5.45-4.06a3.65,3.65,0,0,0,1.17-3.05c-.34-8.47-2.68-47.36-3-49.92a15.37,15.37,0,0,0-1.58-5l0,0-.09,0a10.42,10.42,0,0,0-1.71-.16,15.64,15.64,0,0,0-1.93.16A1.17,1.17,0,0,1,61.14,154.8Z" transform="translate(0 0)"/><path class="cls-1" d="M59.64,149.17c.56-.65,1.94-.6,3.37-.6s2.94,0,3.56.59.36,1.91,0,2.85a8.33,8.33,0,0,1-1,1.81c-.19.29-.1.29-.39.24a10.4,10.4,0,0,0-1.71-.16,15.62,15.62,0,0,0-1.93.16c-.4.05-.4.05-.65-.21a5.2,5.2,0,0,1-1.13-1.74C59.33,151.17,59.08,149.82,59.64,149.17Z" transform="translate(0 0)"/><rect class="cls-2" x="58.68" y="235.78" width="9" height="6.38" rx="1.09" ry="1.09"/><rect class="cls-2" x="32.62" y="235.78" width="23.88" height="6.38" rx="1.27" ry="1.27"/><rect class="cls-2" x="69.87" y="235.78" width="23.88" height="6.38" rx="1.27" ry="1.27"/></svg>